<svg width="420" height="237" viewBox="0 0 420 237" fill="none" xmlns="http://www.w3.org/2000/svg">
<path d="M38.7448 182.895H0V192.336H13.7457V235.763H25.0746V192.336H38.7448V182.895Z" fill="#007ACC"/>
<path d="M70.2392 182.366C57.2487 182.366 43.6541 193.393 43.6541 209.329C43.6541 225.265 57.2487 236.292 70.2392 236.292C83.6073 236.292 96.8999 225.265 96.8999 209.329C96.8999 193.393 83.6073 182.366 70.2392 182.366ZM70.3902 192.638C78.8492 192.638 85.1933 199.284 85.1933 209.329C85.1933 219.374 78.8492 226.02 70.3902 226.02C62.46 226.02 55.4361 219.374 55.4361 209.329C55.4361 199.284 62.46 192.638 70.3902 192.638Z" fill="#007ACC"/>
<path d="M127.865 210.764H104.452V219.223H127.865V210.764Z" fill="#007ACC"/>
<path d="M155.886 182.895H136.929V235.763H155.886C170.84 235.763 182.622 224.056 182.622 209.027C182.622 194.601 170.84 182.895 155.886 182.895V182.895ZM155.886 226.775H147.578V191.882H155.886C166.082 191.882 171.973 199.51 171.973 209.027C171.973 219.072 166.082 226.775 155.886 226.775V226.775Z" fill="#007ACC"/>
<path d="M217.137 182.366C204.147 182.366 190.552 193.393 190.552 209.329C190.552 225.265 204.147 236.292 217.137 236.292C230.505 236.292 243.798 225.265 243.798 209.329C243.798 193.393 230.505 182.366 217.137 182.366ZM217.288 192.638C225.747 192.638 232.091 199.284 232.091 209.329C232.091 219.374 225.747 226.02 217.288 226.02C209.358 226.02 202.334 219.374 202.334 209.329C202.334 199.284 209.358 192.638 217.288 192.638Z" fill="#007ACC"/>
<path d="M286.395 226.851V182.895H275.745V235.763H308.75V226.851H286.395Z" fill="#007ACC"/>
<path d="M328.387 182.895H317.511V235.763H328.387V182.895Z" fill="#007ACC"/>
<path d="M355.954 182.366C346.664 182.366 338.507 187.955 338.507 196.263C338.507 204.797 344.852 209.102 353.084 211.972L355.425 212.878C361.467 215.069 363.884 216.579 363.884 220.733C363.884 225.34 359.504 227.228 355.35 227.228C350.441 227.228 346.287 223.905 344.776 220.053L336.091 223.905C338.81 231.382 346.589 236.292 355.35 236.292C363.96 236.292 374.609 231.533 374.609 220.733C374.609 213.332 370.077 207.441 358.22 203.362L355.878 202.607C350.667 200.87 349.157 199.284 349.157 196.263C349.157 193.393 352.329 191.429 355.954 191.429C359.655 191.429 362.6 193.091 363.96 195.885L373.249 192.789C370.606 187.577 364.564 182.366 355.954 182.366V182.366Z" fill="#007ACC"/>
<path d="M420 182.895H381.255V192.336H395.001V235.763H406.33V192.336H420V182.895Z" fill="#007ACC"/>
<path fill-rule="evenodd" clip-rule="evenodd" d="M210 0C199.723 0 189.892 1.98499 180.505 5.95498C175.866 7.91797 171.498 10.293 167.402 13.082L175.548 11.8C177.549 10.724 179.608 9.73796 181.726 8.84196C190.722 5.03697 200.147 3.13499 210 3.13499C219.853 3.13499 229.277 5.03697 238.273 8.84196C246.103 12.154 253.126 16.6939 259.342 22.4629H263.847C263.758 22.3729 263.669 22.2829 263.579 22.1929C256.588 15.2023 248.56 9.78964 239.494 5.95498C230.108 1.985 220.276 0 210 0V0Z" fill="#007ACC"/>
<path fill-rule="evenodd" clip-rule="evenodd" d="M181.206 19.4599C182.05 18.6159 182.035 17.2279 181.172 16.3659L180.722 15.9219C179.859 15.0589 178.469 15.0439 177.625 15.8879L159.846 33.6658L154.497 28.3159C153.73 27.5499 152.464 27.5779 151.669 28.3749L150.984 29.0639C150.189 29.8589 150.164 31.1279 150.928 31.8909L158.466 39.4288C159.232 40.1948 160.498 40.1668 161.293 39.3728L181.206 19.4599Z" fill="#007ACC"/>
<path fill-rule="evenodd" clip-rule="evenodd" d="M159.999 16.9209C150.155 16.9209 142.155 24.9149 142.155 34.7428C142.155 44.5828 150.158 52.5898 159.999 52.5898C169.826 52.5898 177.82 44.5798 177.82 34.7398C177.82 34.4358 177.811 34.1778 177.755 33.8678C177.51 32.4928 176.197 31.5868 174.82 31.8138C173.448 32.0618 172.52 33.3648 172.765 34.7398C172.765 41.7938 167.04 47.5348 159.999 47.5348C152.945 47.5348 147.207 41.7938 147.207 34.7398C147.207 27.7019 152.945 21.9759 159.999 21.9759C161.097 21.9759 162.152 22.1249 163.136 22.4049C164.48 22.7959 165.879 22.0259 166.273 20.6849C166.661 19.3449 165.888 17.9419 164.548 17.5509C163.108 17.1319 161.575 16.9209 159.999 16.9209V16.9209Z" fill="#007ACC"/>
<path fill-rule="evenodd" clip-rule="evenodd" d="M187.021 26.501C186.323 26.501 185.758 27.072 185.758 27.764C185.758 28.462 186.323 29.03 187.021 29.03H275.488C276.19 29.03 276.754 28.462 276.754 27.764C276.754 27.069 276.187 26.501 275.488 26.501H187.021Z" fill="#007ACC"/>
<path fill-rule="evenodd" clip-rule="evenodd" d="M187.021 31.5588C186.323 31.5588 185.758 32.1268 185.758 32.8218C185.758 33.5198 186.323 34.0848 187.021 34.0848H229.992C230.69 34.0848 231.255 33.5168 231.255 32.8218C231.255 32.1268 230.687 31.5588 229.992 31.5588H187.021Z" fill="#007ACC"/>
<path fill-rule="evenodd" clip-rule="evenodd" d="M285.773 75.7727C285.773 65.4957 283.788 55.6648 279.818 46.2778C277.838 41.5978 275.437 37.1945 272.617 33.0679H268.78C272.031 37.5279 274.747 42.3378 276.93 47.4988C280.736 56.4958 282.638 65.9197 282.638 75.7727C282.638 85.6257 280.736 95.0496 276.93 104.046C276.659 104.689 276.379 105.325 276.09 105.957L276.5 106.009L277.112 106.167L277.491 106.284L277.856 106.439L278.204 106.628L278.532 106.851L278.837 107.105L278.957 107.226C279.252 106.579 279.539 105.926 279.818 105.267C283.788 95.8806 285.773 86.0487 285.773 75.7727V75.7727Z" fill="#007ACC"/>
<path fill-rule="evenodd" clip-rule="evenodd" d="M187.021 36.6138C186.323 36.6138 185.758 37.1818 185.758 37.8768C185.758 38.5758 186.323 39.1428 187.021 39.1428H229.992C230.69 39.1428 231.255 38.5758 231.255 37.8768C231.255 37.1818 230.687 36.6138 229.992 36.6138H187.021Z" fill="#007ACC"/>
<path fill-rule="evenodd" clip-rule="evenodd" d="M134.227 75.7727C134.227 86.0486 136.213 95.8799 140.183 105.267C140.352 105.669 140.526 106.069 140.702 106.467L142.536 102.75C139.086 94.1456 137.362 85.1526 137.362 75.7727C137.362 66.5437 139.031 57.6898 142.37 49.2128L140.659 45.1748C140.498 45.5408 140.339 45.9088 140.183 46.2778C136.213 55.6644 134.227 65.4961 134.227 75.7727V75.7727Z" fill="#007ACC"/>
<path fill-rule="evenodd" clip-rule="evenodd" d="M181.206 59.9009C182.05 59.0539 182.035 57.6699 181.172 56.8039L180.722 56.3659C179.859 55.5039 178.469 55.4879 177.625 56.3319L159.846 74.1108L154.497 68.7608C153.73 67.9968 152.464 68.0218 151.669 68.8198L150.984 69.5088C150.189 70.3028 150.164 71.5688 150.928 72.3358L158.466 79.8728C159.232 80.6398 160.498 80.6118 161.293 79.8138L161.55 79.5598L161.985 79.1218L181.206 59.9009Z" fill="#007ACC"/>
<path fill-rule="evenodd" clip-rule="evenodd" d="M142.155 75.1866C142.155 85.0276 150.158 93.0336 159.999 93.0336C169.826 93.0336 177.82 85.0276 177.82 75.1837C177.82 74.8797 177.811 74.6227 177.755 74.3147C177.51 72.9407 176.197 72.0307 174.82 72.2607C173.448 72.5087 172.52 73.8097 172.765 75.1837C172.765 82.2346 167.04 87.9786 159.999 87.9786C152.945 87.9786 147.207 82.2346 147.207 75.1837C147.207 68.1457 152.945 62.4207 159.999 62.4207C161.097 62.4207 162.152 62.5667 163.136 62.8517C164.48 63.2457 165.879 62.4697 166.273 61.1297C166.661 59.7887 165.888 58.3867 164.548 57.9987C163.108 57.5797 161.575 57.3657 159.999 57.3657C150.155 57.3657 142.155 65.3587 142.155 75.1866V75.1866Z" fill="#007ACC"/>
<path fill-rule="evenodd" clip-rule="evenodd" d="M275.488 69.4767C276.19 69.4767 276.754 68.9098 276.754 68.2108C276.758 67.5128 276.19 66.9478 275.491 66.9478H187.021C186.323 66.9478 185.758 67.5158 185.758 68.2108C185.758 68.9098 186.323 69.4767 187.021 69.4767H275.488Z" fill="#007ACC"/>
<path fill-rule="evenodd" clip-rule="evenodd" d="M187.021 72.0037C186.323 72.0037 185.758 72.5707 185.758 73.2667C185.758 73.9617 186.323 74.5297 187.021 74.5297H229.992C230.69 74.5297 231.255 73.9617 231.255 73.2667C231.255 72.5707 230.687 72.0037 229.992 72.0037H187.021Z" fill="#007ACC"/>
<path fill-rule="evenodd" clip-rule="evenodd" d="M187.021 77.0586C186.323 77.0586 185.758 77.6296 185.758 78.3216C185.758 79.0196 186.323 79.5876 187.021 79.5876H229.992C230.69 79.5876 231.255 79.0196 231.255 78.3216C231.255 77.6266 230.687 77.0586 229.992 77.0586H187.021Z" fill="#007ACC"/>
<path fill-rule="evenodd" clip-rule="evenodd" d="M159.992 134.632C169.83 134.632 177.833 126.629 177.833 116.795C177.833 106.96 169.826 98.9575 159.992 98.9575C150.158 98.9575 142.155 106.96 142.155 116.795C142.155 126.629 150.158 134.632 159.992 134.632V134.632ZM159.992 129.577C152.945 129.577 147.21 123.839 147.21 116.795C147.21 109.747 152.945 104.012 159.992 104.012C167.043 104.012 172.778 109.747 172.778 116.795C172.778 123.842 167.04 129.577 159.992 129.577V129.577Z" fill="#007ACC"/>
<path fill-rule="evenodd" clip-rule="evenodd" d="M275.488 112.444C276.19 112.444 276.754 111.873 276.754 111.181C276.758 110.486 276.19 109.918 275.491 109.918H187.021C186.323 109.918 185.758 110.486 185.758 111.181C185.758 111.876 186.323 112.444 187.021 112.444H275.488Z" fill="#007ACC"/>
<path fill-rule="evenodd" clip-rule="evenodd" d="M231.255 116.237C231.258 115.542 230.69 114.974 229.995 114.974H187.021C186.323 114.974 185.758 115.542 185.758 116.237C185.758 116.932 186.323 117.5 187.021 117.5H229.992C230.69 117.5 231.255 116.929 231.255 116.237Z" fill="#007ACC"/>
<path fill-rule="evenodd" clip-rule="evenodd" d="M239.494 145.589C248.56 141.755 256.588 136.342 263.579 129.351C267.537 125.394 270.988 121.104 273.934 116.482H270.183C267.612 120.275 264.672 123.826 261.363 127.135C254.66 133.837 246.964 139.027 238.273 142.702C229.277 146.507 219.853 148.41 210 148.41C200.147 148.41 190.722 146.507 181.726 142.702C177.531 140.928 173.568 138.801 169.836 136.321L169.702 136.393L169.427 136.527L168.197 137.071L167.912 137.184L166.643 137.634L166.35 137.725L166.343 137.727C170.743 140.836 175.464 143.457 180.505 145.589C189.892 149.56 199.723 151.545 210 151.545C220.276 151.545 230.108 149.56 239.494 145.589H239.494Z" fill="#007ACC"/>
<path fill-rule="evenodd" clip-rule="evenodd" d="M229.995 120.029C230.69 120.029 231.258 120.6 231.255 121.292C231.255 121.987 230.69 122.558 229.992 122.558H187.021C186.323 122.558 185.758 121.99 185.758 121.292C185.758 120.6 186.323 120.029 187.021 120.029H229.995Z" fill="#007ACC"/>
</svg>
